<svg xmlns="http://www.w3.org/2000/svg" xmlns:xlink="http://www.w3.org/1999/xlink" viewBox="0 0 155.3 71.36"><defs><style>.cls-1{fill:none;}.cls-2{clip-path:url(#clip-path);}.cls-3{fill:#fff;}</style><clipPath id="clip-path"><rect class="cls-1" width="155.3" height="71.36"/></clipPath></defs><title>dots</title><g id="Layer_2" data-name="Layer 2"><g id="_5" data-name="5"><g class="cls-2"><path class="cls-3" d="M36.22,12a6,6,0,1,0-6-6,6,6,0,0,0,6,6"/><path class="cls-3" d="M18.22,12a6,6,0,1,0-6-6,6,6,0,0,0,6,6"/><path class="cls-3" d="M55.12,12a6,6,0,1,0-6-6,6,6,0,0,0,6,6"/><path class="cls-3" d="M74.22,12a6,6,0,1,0-6-6,6,6,0,0,0,6,6"/><path class="cls-3" d="M111.32,12a6,6,0,1,0-6-6,6,6,0,0,0,6,6"/><path class="cls-3" d="M93.32,12a6,6,0,1,0-6-6,6,6,0,0,0,6,6"/><path class="cls-3" d="M130.22,12a6,6,0,1,0-6-6,6,6,0,0,0,6,6"/><path class="cls-3" d="M149.32,12a6,6,0,1,0-6-6,6,6,0,0,0,6,6"/><path class="cls-3" d="M28.15,31.76a6,6,0,1,0-6-6,6,6,0,0,0,6,6"/><path class="cls-3" d="M10.15,31.76a6,6,0,1,0-6-6,6,6,0,0,0,6,6"/><path class="cls-3" d="M47.05,31.76a6,6,0,1,0-6-6,6,6,0,0,0,6,6"/><path class="cls-3" d="M66.15,31.76a6,6,0,1,0-6-6,6,6,0,0,0,6,6"/><path class="cls-3" d="M103.25,31.76a6,6,0,1,0-6-6,6,6,0,0,0,6,6"/><path class="cls-3" d="M122.15,31.76a6,6,0,1,0-6-6,6,6,0,0,0,6,6"/><path class="cls-3" d="M141.25,31.76a6,6,0,1,0-6-6,6,6,0,0,0,6,6"/><path class="cls-3" d="M32.05,51.56a6,6,0,1,0-6-6,6,6,0,0,0,6,6"/><path class="cls-3" d="M14.05,51.56a6,6,0,1,0-6-6,6,6,0,0,0,6,6"/><path class="cls-3" d="M51,51.56a6,6,0,1,0-6-6,6,6,0,0,0,6,6"/><path class="cls-3" d="M70.05,51.56a6,6,0,1,0-6-6,6,6,0,0,0,6,6"/><path class="cls-3" d="M107.15,51.56a6,6,0,1,0-6-6,6,6,0,0,0,6,6"/><path class="cls-3" d="M89.15,51.56a6,6,0,1,0-6-6,6,6,0,0,0,6,6"/><path class="cls-3" d="M126.05,51.56a6,6,0,1,0-6-6,6,6,0,0,0,6,6"/><path class="cls-3" d="M145.15,51.56a6,6,0,1,0-6-6,6,6,0,0,0,6,6"/><path class="cls-3" d="M24,71.36a6,6,0,1,0-6-6,6,6,0,0,0,6,6"/><path class="cls-3" d="M6,71.36a6,6,0,1,0-6-6,6,6,0,0,0,6,6"/><path class="cls-3" d="M42.88,71.36a6,6,0,1,0-6-6,6,6,0,0,0,6,6"/><path class="cls-3" d="M62,71.36a6,6,0,1,0-6-6,6,6,0,0,0,6,6"/><path class="cls-3" d="M99.08,71.36a6,6,0,1,0-6-6,6,6,0,0,0,6,6"/><path class="cls-3" d="M118,71.36a6,6,0,1,0-6-6,6,6,0,0,0,6,6"/><path class="cls-3" d="M137.08,71.36a6,6,0,1,0-6-6,6,6,0,0,0,6,6"/><path class="cls-3" d="M85.25,31.76a6,6,0,1,0-6-6,6,6,0,0,0,6,6"/><path class="cls-3" d="M81.08,71.36a6,6,0,1,0-6-6,6,6,0,0,0,6,6"/></g></g></g></svg>