<svg xmlns="http://www.w3.org/2000/svg" xmlns:xlink="http://www.w3.org/1999/xlink" viewBox="0 0 849 495.5"><defs><style>.cls-1,.cls-5,.cls-6{fill:none;}.cls-2{clip-path:url(#clip-path);}.cls-3{fill:#c593c2;}.cls-4{fill:#ba9a50;}.cls-5{stroke:#00aeef;}.cls-6{stroke:#d88f29;}.cls-7{fill:#fff;}</style><clipPath id="clip-path"><rect class="cls-1" width="849" height="495.5"/></clipPath></defs><title>gold</title><g id="Layer_2" data-name="Layer 2"><g id="Layer_1-2" data-name="Layer 1"><g class="cls-2"><path class="cls-3" d="M285.5,395.5c114.32,0,207-80.81,207-180.5S399.82,34.5,285.5,34.5,78.5,115.31,78.5,215s92.68,180.5,207,180.5"/><path class="cls-4" d="M616,495c114.32,0,207-80.81,207-180.5S730.32,134,616,134,409,214.81,409,314.5,501.68,495,616,495"/><ellipse class="cls-5" cx="641.5" cy="314.5" rx="207" ry="180.5"/><ellipse class="cls-6" cx="207.5" cy="181" rx="207" ry="180.5"/><path class="cls-7" d="M147.57,139.6a6,6,0,1,0-6-6,6,6,0,0,0,6,6"/><path class="cls-7" d="M129.57,139.6a6,6,0,1,0-6-6,6,6,0,0,0,6,6"/><path class="cls-7" d="M166.47,139.6a6,6,0,1,0-6-6,6,6,0,0,0,6,6"/><path class="cls-7" d="M185.57,139.6a6,6,0,1,0-6-6,6,6,0,0,0,6,6"/><path class="cls-7" d="M222.67,139.6a6,6,0,1,0-6-6,6,6,0,0,0,6,6"/><path class="cls-7" d="M204.67,139.6a6,6,0,1,0-6-6,6,6,0,0,0,6,6"/><path class="cls-7" d="M241.57,139.6a6,6,0,1,0-6-6,6,6,0,0,0,6,6"/><path class="cls-7" d="M260.67,139.6a6,6,0,1,0-6-6,6,6,0,0,0,6,6"/><path class="cls-7" d="M139.5,159.4a6,6,0,1,0-6-6,6,6,0,0,0,6,6"/><path class="cls-7" d="M121.5,159.4a6,6,0,1,0-6-6,6,6,0,0,0,6,6"/><path class="cls-7" d="M158.4,159.4a6,6,0,1,0-6-6,6,6,0,0,0,6,6"/><path class="cls-7" d="M177.5,159.4a6,6,0,1,0-6-6,6,6,0,0,0,6,6"/><path class="cls-7" d="M214.6,159.4a6,6,0,1,0-6-6,6,6,0,0,0,6,6"/><path class="cls-7" d="M233.5,159.4a6,6,0,1,0-6-6,6,6,0,0,0,6,6"/><path class="cls-7" d="M252.6,159.4a6,6,0,1,0-6-6,6,6,0,0,0,6,6"/><path class="cls-7" d="M143.4,179.2a6,6,0,1,0-6-6,6,6,0,0,0,6,6"/><path class="cls-7" d="M125.4,179.2a6,6,0,1,0-6-6,6,6,0,0,0,6,6"/><path class="cls-7" d="M162.3,179.2a6,6,0,1,0-6-6,6,6,0,0,0,6,6"/><path class="cls-7" d="M181.4,179.2a6,6,0,1,0-6-6,6,6,0,0,0,6,6"/><path class="cls-7" d="M218.5,179.2a6,6,0,1,0-6-6,6,6,0,0,0,6,6"/><path class="cls-7" d="M200.5,179.2a6,6,0,1,0-6-6,6,6,0,0,0,6,6"/><path class="cls-7" d="M237.4,179.2a6,6,0,1,0-6-6,6,6,0,0,0,6,6"/><path class="cls-7" d="M256.5,179.2a6,6,0,1,0-6-6,6,6,0,0,0,6,6"/><path class="cls-7" d="M135.33,199a6,6,0,1,0-6-6,6,6,0,0,0,6,6"/><path class="cls-7" d="M154.23,199a6,6,0,1,0-6-6,6,6,0,0,0,6,6"/><path class="cls-7" d="M173.33,199a6,6,0,1,0-6-6,6,6,0,0,0,6,6"/><path class="cls-7" d="M210.43,199a6,6,0,1,0-6-6,6,6,0,0,0,6,6"/><path class="cls-7" d="M229.33,199a6,6,0,1,0-6-6,6,6,0,0,0,6,6"/><path class="cls-7" d="M248.43,199a6,6,0,1,0-6-6,6,6,0,0,0,6,6"/><path class="cls-7" d="M196.6,159.4a6,6,0,1,0-6-6,6,6,0,0,0,6,6"/><path class="cls-7" d="M192.43,199a6,6,0,1,0-6-6,6,6,0,0,0,6,6"/></g></g></g></svg>