<svg xmlns="http://www.w3.org/2000/svg" viewBox="0 0 95.82 8.78">
  <defs>
  <style>.cls-1{fill:#231f20;}</style>
</defs>
<title>Asset 4</title>
<g id="Layer_2" data-name="Layer 2"><g id="Layer_2-2" data-name="Layer 2"><path class="cls-1" d="M6.63,8.29a7.5,7.5,0,0,1-2.48.44,4.14,4.14,0,0,1-3-1.07A4.14,4.14,0,0,1,0,4.65,4.05,4.05,0,0,1,4.38.48a5,5,0,0,1,2,.37l-.25.85a4.23,4.23,0,0,0-1.79-.34A3,3,0,0,0,1.1,4.61,3,3,0,0,0,4.22,7.87a3.35,3.35,0,0,0,1.39-.22V5.24H4V4.4H6.63Z"/><path class="cls-1" d="M13.51,5.7a2.84,2.84,0,0,1-2.89,3.08,2.76,2.76,0,0,1-2.78-3,2.83,2.83,0,0,1,2.87-3.08A2.75,2.75,0,0,1,13.51,5.7ZM8.9,5.76C8.9,7,9.64,8,10.67,8s1.76-1,1.76-2.26c0-1-.49-2.23-1.74-2.23S8.9,4.65,8.9,5.76Z"/><path class="cls-1" d="M20.1,5.7a2.84,2.84,0,0,1-2.89,3.08,2.77,2.77,0,0,1-2.79-3A2.84,2.84,0,0,1,17.3,2.71,2.75,2.75,0,0,1,20.1,5.7Zm-4.61.06C15.49,7,16.22,8,17.25,8S19,7,19,5.73c0-1-.49-2.23-1.74-2.23S15.49,4.65,15.49,5.76Z"/><path class="cls-1" d="M26.44.13v7c0,.51,0,1.1,0,1.5h-.94l-.05-1h0a2.14,2.14,0,0,1-2,1.14C22.09,8.78,21,7.59,21,5.83c0-1.93,1.19-3.12,2.6-3.12a2,2,0,0,1,1.76.89h0V.13ZM25.39,5.21a1.68,1.68,0,0,0-.05-.45,1.54,1.54,0,0,0-1.52-1.22c-1.09,0-1.74,1-1.74,2.24s.57,2.15,1.71,2.15a1.59,1.59,0,0,0,1.55-1.26,1.71,1.71,0,0,0,.05-.46Z"/><path class="cls-1" d="M30.85,8.65v-5H30V2.84h.81V2.57a2.75,2.75,0,0,1,.67-2A2.06,2.06,0,0,1,32.94,0a2.36,2.36,0,0,1,.9.17L33.69,1A1.58,1.58,0,0,0,33,.85c-.9,0-1.13.79-1.13,1.68v.31H33.3v.81H31.89v5Z"/><path class="cls-1" d="M39.34,5.7a2.84,2.84,0,0,1-2.89,3.08,2.76,2.76,0,0,1-2.78-3,2.83,2.83,0,0,1,2.88-3.08A2.74,2.74,0,0,1,39.34,5.7Zm-4.6.06C34.74,7,35.47,8,36.5,8s1.77-1,1.77-2.26c0-1-.5-2.23-1.74-2.23S34.74,4.65,34.74,5.76Z"/><path class="cls-1" d="M40.68,4.65c0-.68,0-1.27,0-1.81h.93l0,1.14h0a1.74,1.74,0,0,1,1.61-1.27,1,1,0,0,1,.3,0v1a1.94,1.94,0,0,0-.36,0,1.48,1.48,0,0,0-1.42,1.35,3.52,3.52,0,0,0-.05.49v3.1h-1Z"/><path class="cls-1" d="M48.42,1.18V2.84h1.51v.81H48.42V6.78c0,.72.2,1.12.79,1.12a2.15,2.15,0,0,0,.61-.07l0,.79a2.44,2.44,0,0,1-.94.15,1.47,1.47,0,0,1-1.14-.45,2.18,2.18,0,0,1-.4-1.51V3.65h-.9V2.84h.9V1.45Z"/><path class="cls-1" d="M51.12.13h1.05V3.75h0A2,2,0,0,1,53,3,2.22,2.22,0,0,1,54,2.71c.78,0,2,.48,2,2.48V8.65H55V5.31c0-.93-.34-1.72-1.34-1.72a1.51,1.51,0,0,0-1.41,1,1.3,1.3,0,0,0-.08.51v3.5H51.12Z"/><path class="cls-1" d="M58.37,5.94a1.85,1.85,0,0,0,2,2,3.75,3.75,0,0,0,1.6-.3l.19.76a4.72,4.72,0,0,1-1.94.36,2.7,2.7,0,0,1-2.85-2.93c0-1.75,1-3.13,2.72-3.13a2.46,2.46,0,0,1,2.4,2.74,2.81,2.81,0,0,1,0,.49Zm3.09-.76A1.5,1.5,0,0,0,60,3.47a1.74,1.74,0,0,0-1.62,1.71Z"/><path class="cls-1" d="M66.29,8.65c0-.4,0-1,0-1.5v-7h1V3.78h0a2.17,2.17,0,0,1,2-1.07c1.44,0,2.46,1.2,2.45,3,0,2.08-1.31,3.11-2.6,3.11a2.07,2.07,0,0,1-2-1.09h0l0,1Zm1.09-2.33a1.58,1.58,0,0,0,.05.38A1.61,1.61,0,0,0,69,7.94c1.1,0,1.76-.9,1.76-2.23,0-1.16-.6-2.16-1.72-2.16a1.68,1.68,0,0,0-1.61,1.3,1.71,1.71,0,0,0-.06.43Z"/><path class="cls-1" d="M78.42,5.7a2.84,2.84,0,0,1-2.89,3.08,2.76,2.76,0,0,1-2.79-3,2.83,2.83,0,0,1,2.88-3.08A2.75,2.75,0,0,1,78.42,5.7Zm-4.61.06C73.81,7,74.54,8,75.57,8s1.77-1,1.77-2.26c0-1-.5-2.23-1.74-2.23S73.81,4.65,73.81,5.76Z"/><path class="cls-1" d="M79.75,4.41c0-.6,0-1.09,0-1.57h.94l.06,1h0a2.14,2.14,0,0,1,1.92-1.09c.8,0,2,.48,2,2.47V8.65h-1V5.3c0-.93-.35-1.71-1.35-1.71a1.5,1.5,0,0,0-1.41,1.08,1.45,1.45,0,0,0-.07.49V8.65H79.75Z"/><path class="cls-1" d="M87,5.94a1.85,1.85,0,0,0,2,2,3.83,3.83,0,0,0,1.61-.3l.18.76a4.71,4.71,0,0,1-1.93.36A2.7,2.7,0,0,1,86,5.84c0-1.75,1-3.13,2.72-3.13a2.46,2.46,0,0,1,2.4,2.74,4.88,4.88,0,0,1,0,.49Zm3.09-.76a1.5,1.5,0,0,0-1.46-1.71A1.74,1.74,0,0,0,87,5.18Z"/><path class="cls-1" d="M92.28,7.57A2.79,2.79,0,0,0,93.67,8c.77,0,1.13-.39,1.13-.87s-.3-.78-1.08-1.06c-1-.37-1.54-.95-1.54-1.65a1.8,1.8,0,0,1,2-1.7,2.9,2.9,0,0,1,1.42.36l-.26.77a2.22,2.22,0,0,0-1.19-.34c-.62,0-1,.36-1,.79s.35.7,1.1,1c1,.38,1.53.89,1.53,1.75,0,1-.8,1.74-2.17,1.74A3.34,3.34,0,0,1,92,8.37Z"/></g></g></svg>
